<mxfile host="app.diagrams.net" modified="2024-04-10T13:55:18.358Z" agent="Mozilla/5.0 (Windows NT 10.0; Win64; x64; rv:124.0) Gecko/20100101 Firefox/124.0" version="24.2.3" etag="rWt4ODv_9T5p5KVzpag7" type="github">
  <diagram name="第 1 页" id="Fn-IW0HK8aDNY2VyN5cV">
    <mxGraphModel>
      <root>
        <mxCell id="0" />
        <mxCell id="1" parent="0" />
      </root>
    </mxGraphModel>
  </diagram>
</mxfile>
